<svg width="360" height="120" viewBox="0 0 360 120" fill="none" xmlns="http://www.w3.org/2000/svg">
<path d="M196.364 70.243C114.103 53.2878 52.1867 65.3987 0 86.3909V0H360V56.5174C304.098 80.4162 221.13 75.3478 196.364 70.243Z" fill="#D82E20"/>
<path d="M187.059 79.2495C99.5294 64.2534 25.8824 95.8214 0 113.48V120C70.5882 77.6196 154.118 75.1745 187.059 79.2495Z" fill="#D82E20"/>
<path d="M188.824 74.3594C106.765 57.2444 30.5882 81.4228 0 95.5497V104.515C69.7059 63.7644 157.941 69.733 188.824 74.3594Z" fill="#D82E20"/>
<path d="M210.882 75.7957C292.059 84.7608 333.529 72.5357 360 62.7556V69.2757C300.882 85.5758 235.588 81.5008 210.882 75.7957Z" fill="#D82E20"/>
<path d="M210 80.6858C277.059 93.7259 337.941 83.9458 360 75.7957V83.9458C289.412 97.801 229.412 85.5758 210 80.6858Z" fill="#D82E20"/>
</svg>
